<mxfile host="app.diagrams.net" agent="Mozilla/5.0 (Windows NT 10.0; Win64; x64) AppleWebKit/537.36 (KHTML, like Gecko) Chrome/130.0.0.0 Safari/537.36" version="24.7.17">
  <diagram name="Page-1" id="UkuJcM3pljA8nV-5dZbl">
    <mxGraphModel dx="1434" dy="738" grid="1" gridSize="10" guides="1" tooltips="1" connect="1" arrows="1" fold="1" page="1" pageScale="1" pageWidth="827" pageHeight="1169" math="0" shadow="0">
      <root>
        <mxCell id="0" />
        <mxCell id="1" parent="0" />
        <mxCell id="rs5CMINbXS5ElmrlZs5N-11" value="" style="rounded=0;whiteSpace=wrap;html=1;" parent="1" vertex="1">
          <mxGeometry x="190" y="240" width="520" height="640" as="geometry" />
        </mxCell>
        <mxCell id="L1_0BYCu7gVLp57IwC8j-13" style="rounded=0;orthogonalLoop=1;jettySize=auto;html=1;entryX=0;entryY=0.5;entryDx=0;entryDy=0;" parent="1" source="bM4iR_tVpDUXSTGg7Oxy-2" target="gfJM4c03IJpgwYlzWMbe-8" edge="1">
          <mxGeometry relative="1" as="geometry" />
        </mxCell>
        <mxCell id="L1_0BYCu7gVLp57IwC8j-14" style="rounded=0;orthogonalLoop=1;jettySize=auto;html=1;entryX=0;entryY=0.5;entryDx=0;entryDy=0;" parent="1" source="bM4iR_tVpDUXSTGg7Oxy-2" target="L1_0BYCu7gVLp57IwC8j-10" edge="1">
          <mxGeometry relative="1" as="geometry" />
        </mxCell>
        <mxCell id="bM4iR_tVpDUXSTGg7Oxy-2" value="Administrateur" style="shape=umlActor;verticalLabelPosition=bottom;verticalAlign=top;html=1;aspect=fixed;" parent="1" vertex="1">
          <mxGeometry x="110" y="684.5" width="40" height="80" as="geometry" />
        </mxCell>
        <mxCell id="L1_0BYCu7gVLp57IwC8j-15" style="rounded=0;orthogonalLoop=1;jettySize=auto;html=1;entryX=0;entryY=0.5;entryDx=0;entryDy=0;" parent="1" source="bM4iR_tVpDUXSTGg7Oxy-3" target="gfJM4c03IJpgwYlzWMbe-7" edge="1">
          <mxGeometry relative="1" as="geometry" />
        </mxCell>
        <mxCell id="L1_0BYCu7gVLp57IwC8j-16" style="rounded=0;orthogonalLoop=1;jettySize=auto;html=1;entryX=0;entryY=0.5;entryDx=0;entryDy=0;" parent="1" source="bM4iR_tVpDUXSTGg7Oxy-3" target="gfJM4c03IJpgwYlzWMbe-14" edge="1">
          <mxGeometry relative="1" as="geometry" />
        </mxCell>
        <mxCell id="bM4iR_tVpDUXSTGg7Oxy-3" value="&lt;div&gt;Client&lt;/div&gt;" style="shape=umlActor;verticalLabelPosition=bottom;verticalAlign=top;html=1;aspect=fixed;" parent="1" vertex="1">
          <mxGeometry x="110" y="405" width="40" height="80" as="geometry" />
        </mxCell>
        <mxCell id="L1_0BYCu7gVLp57IwC8j-26" style="rounded=0;orthogonalLoop=1;jettySize=auto;html=1;entryX=0;entryY=0.5;entryDx=0;entryDy=0;endArrow=none;endFill=0;startArrow=classicThin;startFill=1;dashed=1;" parent="1" source="gfJM4c03IJpgwYlzWMbe-7" target="gfJM4c03IJpgwYlzWMbe-12" edge="1">
          <mxGeometry relative="1" as="geometry" />
        </mxCell>
        <mxCell id="rs5CMINbXS5ElmrlZs5N-8" value="&amp;lt;&amp;lt;extend&amp;gt;&amp;gt;" style="edgeLabel;html=1;align=center;verticalAlign=middle;resizable=0;points=[];rotation=-17;" parent="L1_0BYCu7gVLp57IwC8j-26" vertex="1" connectable="0">
          <mxGeometry x="0.0153" y="1" relative="1" as="geometry">
            <mxPoint as="offset" />
          </mxGeometry>
        </mxCell>
        <mxCell id="L1_0BYCu7gVLp57IwC8j-27" style="rounded=0;orthogonalLoop=1;jettySize=auto;html=1;entryX=0;entryY=0.5;entryDx=0;entryDy=0;endArrow=none;endFill=0;startArrow=classicThin;startFill=1;dashed=1;" parent="1" source="gfJM4c03IJpgwYlzWMbe-7" target="gfJM4c03IJpgwYlzWMbe-13" edge="1">
          <mxGeometry relative="1" as="geometry" />
        </mxCell>
        <mxCell id="rs5CMINbXS5ElmrlZs5N-7" value="&amp;lt;&amp;lt;extend&amp;gt;&amp;gt;" style="edgeLabel;html=1;align=center;verticalAlign=middle;resizable=0;points=[];rotation=3;" parent="L1_0BYCu7gVLp57IwC8j-27" vertex="1" connectable="0">
          <mxGeometry x="0.0718" y="2" relative="1" as="geometry">
            <mxPoint as="offset" />
          </mxGeometry>
        </mxCell>
        <mxCell id="L1_0BYCu7gVLp57IwC8j-29" style="rounded=0;orthogonalLoop=1;jettySize=auto;html=1;entryX=0;entryY=0.5;entryDx=0;entryDy=0;exitX=1;exitY=0.5;exitDx=0;exitDy=0;endArrow=none;endFill=0;startArrow=classicThin;startFill=1;dashed=1;" parent="1" source="gfJM4c03IJpgwYlzWMbe-14" target="gfJM4c03IJpgwYlzWMbe-16" edge="1">
          <mxGeometry relative="1" as="geometry" />
        </mxCell>
        <mxCell id="rs5CMINbXS5ElmrlZs5N-5" value="&amp;lt;&amp;lt;extend&amp;gt;&amp;gt;" style="edgeLabel;html=1;align=center;verticalAlign=middle;resizable=0;points=[];rotation=35;" parent="L1_0BYCu7gVLp57IwC8j-29" vertex="1" connectable="0">
          <mxGeometry x="0.0894" relative="1" as="geometry">
            <mxPoint x="28" y="17" as="offset" />
          </mxGeometry>
        </mxCell>
        <mxCell id="L1_0BYCu7gVLp57IwC8j-46" style="rounded=0;orthogonalLoop=1;jettySize=auto;html=1;entryX=0;entryY=0.5;entryDx=0;entryDy=0;endArrow=none;endFill=0;startArrow=classicThin;startFill=1;dashed=1;" parent="1" source="gfJM4c03IJpgwYlzWMbe-7" target="gfJM4c03IJpgwYlzWMbe-15" edge="1">
          <mxGeometry relative="1" as="geometry" />
        </mxCell>
        <mxCell id="rs5CMINbXS5ElmrlZs5N-6" value="&amp;lt;&amp;lt;extend&amp;gt;&amp;gt;" style="edgeLabel;html=1;align=center;verticalAlign=middle;resizable=0;points=[];rotation=25;" parent="L1_0BYCu7gVLp57IwC8j-46" vertex="1" connectable="0">
          <mxGeometry x="0.1667" y="1" relative="1" as="geometry">
            <mxPoint x="5" y="2" as="offset" />
          </mxGeometry>
        </mxCell>
        <mxCell id="L1_0BYCu7gVLp57IwC8j-54" style="rounded=0;orthogonalLoop=1;jettySize=auto;html=1;dashed=1;endArrow=classicThin;endFill=1;exitX=1;exitY=0.5;exitDx=0;exitDy=0;" parent="1" source="gfJM4c03IJpgwYlzWMbe-7" target="L1_0BYCu7gVLp57IwC8j-47" edge="1">
          <mxGeometry relative="1" as="geometry" />
        </mxCell>
        <mxCell id="L1_0BYCu7gVLp57IwC8j-62" value="&amp;lt;&amp;lt;include&amp;gt;&amp;gt;" style="edgeLabel;html=1;align=center;verticalAlign=middle;resizable=0;points=[];rotation=65;" parent="L1_0BYCu7gVLp57IwC8j-54" vertex="1" connectable="0">
          <mxGeometry relative="1" as="geometry">
            <mxPoint x="18" y="38" as="offset" />
          </mxGeometry>
        </mxCell>
        <mxCell id="gfJM4c03IJpgwYlzWMbe-7" value="Consulter Bailleur" style="ellipse;whiteSpace=wrap;html=1;" parent="1" vertex="1">
          <mxGeometry x="226" y="403" width="150" height="80" as="geometry" />
        </mxCell>
        <mxCell id="L1_0BYCu7gVLp57IwC8j-53" style="rounded=0;orthogonalLoop=1;jettySize=auto;html=1;dashed=1;endArrow=classicThin;endFill=1;exitX=1;exitY=0.5;exitDx=0;exitDy=0;" parent="1" source="gfJM4c03IJpgwYlzWMbe-14" target="L1_0BYCu7gVLp57IwC8j-47" edge="1">
          <mxGeometry relative="1" as="geometry" />
        </mxCell>
        <mxCell id="L1_0BYCu7gVLp57IwC8j-61" value="&amp;lt;&amp;lt;include&amp;gt;&amp;gt;" style="edgeLabel;html=1;align=center;verticalAlign=middle;resizable=0;points=[];rotation=60;" parent="L1_0BYCu7gVLp57IwC8j-53" vertex="1" connectable="0">
          <mxGeometry relative="1" as="geometry">
            <mxPoint x="-3" y="-9" as="offset" />
          </mxGeometry>
        </mxCell>
        <mxCell id="gfJM4c03IJpgwYlzWMbe-14" value="Consulter Site" style="ellipse;whiteSpace=wrap;html=1;" parent="1" vertex="1">
          <mxGeometry x="226" y="497" width="150" height="80" as="geometry" />
        </mxCell>
        <mxCell id="L1_0BYCu7gVLp57IwC8j-7" style="rounded=0;orthogonalLoop=1;jettySize=auto;html=1;endArrow=block;endFill=0;" parent="1" edge="1">
          <mxGeometry relative="1" as="geometry">
            <mxPoint x="129.58000000000004" y="675" as="sourcePoint" />
            <mxPoint x="129.58000000000004" y="515" as="targetPoint" />
          </mxGeometry>
        </mxCell>
        <mxCell id="L1_0BYCu7gVLp57IwC8j-50" style="rounded=0;orthogonalLoop=1;jettySize=auto;html=1;dashed=1;endArrow=classicThin;endFill=1;exitX=1;exitY=0.5;exitDx=0;exitDy=0;" parent="1" source="L1_0BYCu7gVLp57IwC8j-10" target="L1_0BYCu7gVLp57IwC8j-47" edge="1">
          <mxGeometry relative="1" as="geometry" />
        </mxCell>
        <mxCell id="L1_0BYCu7gVLp57IwC8j-58" value="&amp;lt;&amp;lt;include&amp;gt;&amp;gt;" style="edgeLabel;html=1;align=center;verticalAlign=middle;resizable=0;points=[];rotation=0;" parent="L1_0BYCu7gVLp57IwC8j-50" vertex="1" connectable="0">
          <mxGeometry relative="1" as="geometry">
            <mxPoint x="-3" y="-1" as="offset" />
          </mxGeometry>
        </mxCell>
        <mxCell id="L1_0BYCu7gVLp57IwC8j-10" value="Gérer Bailleurs" style="ellipse;whiteSpace=wrap;html=1;" parent="1" vertex="1">
          <mxGeometry x="226" y="778" width="150" height="80" as="geometry" />
        </mxCell>
        <mxCell id="L1_0BYCu7gVLp57IwC8j-51" style="rounded=0;orthogonalLoop=1;jettySize=auto;html=1;dashed=1;endArrow=classicThin;endFill=1;exitX=1;exitY=0.5;exitDx=0;exitDy=0;" parent="1" source="gfJM4c03IJpgwYlzWMbe-8" target="L1_0BYCu7gVLp57IwC8j-47" edge="1">
          <mxGeometry relative="1" as="geometry" />
        </mxCell>
        <mxCell id="L1_0BYCu7gVLp57IwC8j-59" value="&amp;lt;&amp;lt;include&amp;gt;&amp;gt;" style="edgeLabel;html=1;align=center;verticalAlign=middle;resizable=0;points=[];rotation=29;" parent="L1_0BYCu7gVLp57IwC8j-51" vertex="1" connectable="0">
          <mxGeometry relative="1" as="geometry">
            <mxPoint y="-1" as="offset" />
          </mxGeometry>
        </mxCell>
        <mxCell id="gfJM4c03IJpgwYlzWMbe-8" value="Gérer Materiels" style="ellipse;whiteSpace=wrap;html=1;" parent="1" vertex="1">
          <mxGeometry x="226" y="684" width="150" height="80" as="geometry" />
        </mxCell>
        <mxCell id="L1_0BYCu7gVLp57IwC8j-2" style="edgeStyle=orthogonalEdgeStyle;rounded=0;orthogonalLoop=1;jettySize=auto;html=1;exitX=0.5;exitY=1;exitDx=0;exitDy=0;" parent="1" source="gfJM4c03IJpgwYlzWMbe-8" target="gfJM4c03IJpgwYlzWMbe-8" edge="1">
          <mxGeometry relative="1" as="geometry" />
        </mxCell>
        <mxCell id="L1_0BYCu7gVLp57IwC8j-47" value="Authentification" style="ellipse;whiteSpace=wrap;html=1;container=0;" parent="1" vertex="1">
          <mxGeometry x="470" y="778" width="150" height="80" as="geometry" />
        </mxCell>
        <mxCell id="rs5CMINbXS5ElmrlZs5N-1" value="" style="group;flipH=1;" parent="1" vertex="1" connectable="0">
          <mxGeometry x="540" y="320" width="150" height="369" as="geometry" />
        </mxCell>
        <mxCell id="gfJM4c03IJpgwYlzWMbe-15" value="Exporter rapport visite" style="ellipse;whiteSpace=wrap;html=1;container=0;" parent="rs5CMINbXS5ElmrlZs5N-1" vertex="1">
          <mxGeometry y="193" width="150" height="80" as="geometry" />
        </mxCell>
        <mxCell id="gfJM4c03IJpgwYlzWMbe-16" value="Consulter liste des équipements" style="ellipse;whiteSpace=wrap;html=1;container=0;" parent="rs5CMINbXS5ElmrlZs5N-1" vertex="1">
          <mxGeometry y="289" width="150" height="80" as="geometry" />
        </mxCell>
        <mxCell id="gfJM4c03IJpgwYlzWMbe-12" value="Exporter outil de visite" style="ellipse;whiteSpace=wrap;html=1;container=0;" parent="rs5CMINbXS5ElmrlZs5N-1" vertex="1">
          <mxGeometry width="150" height="80" as="geometry" />
        </mxCell>
        <mxCell id="gfJM4c03IJpgwYlzWMbe-13" value="Importer fichier de visite" style="ellipse;whiteSpace=wrap;html=1;container=0;" parent="rs5CMINbXS5ElmrlZs5N-1" vertex="1">
          <mxGeometry y="96" width="150" height="80" as="geometry" />
        </mxCell>
        <mxCell id="rs5CMINbXS5ElmrlZs5N-12" value="Diagramme de cas d&#39;utilisation Outil de visite" style="text;html=1;align=center;verticalAlign=middle;whiteSpace=wrap;rounded=0;fontSize=18;" parent="1" vertex="1">
          <mxGeometry x="255" y="260" width="370" height="38" as="geometry" />
        </mxCell>
      </root>
    </mxGraphModel>
  </diagram>
</mxfile>
